<?xml version="1.0" encoding="UTF-8" standalone="no"?>
<svg xmlns="http://www.w3.org/2000/svg" xmlns:xlink="http://www.w3.org/1999/xlink" xmlns:serif="http://www.serif.com/" width="100%" height="100%" viewBox="0 0 2296 950" version="1.1" xml:space="preserve" style="fill-rule:evenodd;clip-rule:evenodd;stroke-miterlimit:2;">
    <g transform="matrix(4.16667,0,0,4.16667,0,0)">
        <path d="M370.857,65.087L345.342,65.087L327.228,125.071L352.742,125.071L370.857,65.087Z" style="fill:#FFFFFF;fill-rule:nonzero;"></path>
        <path d="M228.515,4.618L5.777,4.618L24.729,227.76L36.234,228L228.515,4.618Z" style="fill:#FFFFFF;fill-rule:nonzero;"></path>
        <path d="M340.572,65.087L315.058,65.087L296.943,125.071L322.455,125.071L340.572,65.087Z" style="fill:#FFFFFF;fill-rule:nonzero;"></path>
        <path d="M543.952,43.487L518.434,43.487L490.159,136.198L515.677,136.198C515.677,136.198 532.329,81.595 533.345,78.267L542.182,78.267L550.427,51.232L541.59,51.232C542.26,49.036 543.952,43.487 543.952,43.487Z" style="fill:#FFFFFF;fill-rule:nonzero;"></path>
        <path d="M513.385,28.678L487.989,28.678L459.084,125.071L484.585,125.071L509.529,43.288L513.385,28.678Z" style="fill:#FFFFFF;fill-rule:nonzero;"></path>
        <path d="M443.538,58.933C443.538,50.32 436.53,43.312 427.915,43.312C419.301,43.312 412.293,50.32 412.293,58.933C412.293,64.47 415.197,69.33 419.552,72.106C418,71.329 416.555,70.328 415.265,69.109L412.607,66.347L411.159,70.19L394.256,125.071L419.784,125.071L435.914,72.327C440.472,69.595 443.538,64.622 443.538,58.933Z" style="fill:#FFFFFF;fill-rule:nonzero;"></path>
        <path d="M468.801,64.598L466.21,64.633C462.034,64.636 456.838,64.639 451.176,68.125C441.567,74.04 432.394,90.875 432.394,104.909C432.394,107.366 432.675,109.736 433.284,111.948C435.576,120.269 442.199,124.929 451.934,125.071L453.813,125.097L472.293,64.551L468.801,64.598Z" style="fill:#FFFFFF;fill-rule:nonzero;"></path>
        <path d="M375.551,66.951L354.329,136.012L379.857,136.012L396.573,81.194L396.573,80.822C396.573,72.207 389.565,65.199 380.951,65.199C380.958,65.199 377.951,65.186 377.951,65.186L376.096,65.178L375.551,66.951Z" style="fill:#FFFFFF;fill-rule:nonzero;"></path>
        <path d="M278.708,66.951L257.486,136.012L283.015,136.012L299.73,81.194L299.73,80.822C299.73,72.207 292.722,65.199 284.109,65.199C284.116,65.199 281.109,65.186 281.109,65.186L279.253,65.178L278.708,66.951Z" style="fill:#FFFFFF;fill-rule:nonzero;"></path>
        <path d="M285.714,28.678L260.142,28.678C260.142,28.678 242.109,87.665 242.098,87.702C239.821,94.936 227.05,105.259 213.022,111.203C202.754,115.555 193.66,116.848 187.572,114.905C188.834,111.03 200.313,75.802 201.249,72.93C211.471,72.206 216.643,75.141 219.746,76.968C221.072,77.75 222.121,78.367 223.282,78.512L225.049,78.732L229.097,70.51L223.945,67.968C217.191,64.554 209.537,60.686 193.176,62.949C183.312,64.313 173.267,70.681 166.305,79.983C160.362,87.922 157.613,96.892 158.763,104.592C160.087,113.467 166.323,120.662 175.874,124.334C192.323,130.659 214.065,125.336 235.114,110.128C233.415,115.701 230.557,125.071 230.557,125.071L256.075,125.071L281.006,43.334C280.995,43.368 284.665,31.942 284.665,31.942L285.714,28.678Z" style="fill:#FFFFFF;fill-rule:nonzero;"></path>
        <path d="M115.944,2.161L219.69,2.161L33.797,217.51L115.944,2.161Z" style="fill:rgb(255,212,0);fill-rule:nonzero;"></path>
        <path d="M115.944,2.161L219.69,2.161L33.797,217.51L115.944,2.161Z" style="fill:none;stroke:#FFFFFF;stroke-width:2.5px;"></path>
        <path d="M107.434,2.161L1.396,2.161L25.287,217.51L107.434,2.161Z" style="fill:rgb(255,212,0);fill-rule:nonzero;"></path>
        <path d="M107.434,2.161L1.396,2.161L25.287,217.51L107.434,2.161Z" style="fill:none;stroke:#FFFFFF;stroke-width:2.5px;"></path>
        <path d="M311.864,62.773L332.155,62.773L315.548,117.756L295.258,117.756L311.864,62.773Z" style="fill:white;fill-rule:nonzero;"></path>
        <path d="M311.864,62.773L332.155,62.773L315.548,117.756L295.258,117.756L311.864,62.773Z" style="fill:none;stroke:#FFFFFF;stroke-width:2.5px;"></path>
        <path d="M342.431,62.773L362.723,62.773L346.118,117.756L325.826,117.756L342.431,62.773Z" style="fill:white;fill-rule:nonzero;"></path>
        <path d="M342.431,62.773L362.723,62.773L346.118,117.756L325.826,117.756L342.431,62.773Z" style="fill:none;stroke:#FFFFFF;stroke-width:2.5px;"></path>
        <path d="M535.28,70.953L542,48.917L533.163,48.917L535.526,41.173L515.235,41.173L488.484,128.883L508.775,128.883L526.443,70.953L535.28,70.953Z" style="fill:white;fill-rule:nonzero;"></path>
        <path d="M535.28,70.953L542,48.917L533.163,48.917L535.526,41.173L515.235,41.173L488.484,128.883L508.775,128.883L526.443,70.953L535.28,70.953Z" style="fill:none;stroke:#FFFFFF;stroke-width:2.5px;"></path>
        <path d="M502.073,37.79L505.089,26.363L484.798,26.363L457.393,117.756L477.683,117.756L495.351,59.826L502.073,37.79Z" style="fill:white;fill-rule:nonzero;"></path>
        <path d="M502.073,37.79L505.089,26.363L484.798,26.363L457.393,117.756L477.683,117.756L495.351,59.826L502.073,37.79Z" style="fill:none;stroke:#FFFFFF;stroke-width:2.5px;"></path>
        <path d="M427.198,70.954C425.64,71.335 424.189,71.685 422.514,71.685C417.086,71.685 412.154,69.567 408.497,66.112L392.591,117.756L412.884,117.756L427.198,70.954Z" style="fill:white;fill-rule:nonzero;"></path>
        <path d="M427.198,70.954C425.64,71.335 424.189,71.685 422.514,71.685C417.086,71.685 412.154,69.567 408.497,66.112L392.591,117.756L412.884,117.756L427.198,70.954Z" style="fill:none;stroke:#FFFFFF;stroke-width:2.5px;"></path>
        <path d="M422.865,65.259C430.113,65.259 435.988,59.383 435.988,52.137C435.988,44.889 430.113,39.015 422.865,39.015C415.618,39.015 409.742,44.889 409.742,52.137C409.742,59.383 415.618,65.259 422.865,65.259Z" style="fill:white;fill-rule:nonzero;"></path>
        <path d="M422.865,65.259C430.113,65.259 435.988,59.383 435.988,52.137C435.988,44.889 430.113,39.015 422.865,39.015C415.618,39.015 409.742,44.889 409.742,52.137C409.742,59.383 415.618,65.259 422.865,65.259Z" style="fill:none;stroke:#FFFFFF;stroke-width:2.5px;"></path>
        <path d="M447.436,65.439C431.086,75.504 418.035,117.338 446.919,117.756L463.852,62.282C459.069,62.476 453.628,61.627 447.436,65.439Z" style="fill:white;fill-rule:nonzero;"></path>
        <path d="M447.436,65.439C431.086,75.504 418.035,117.338 446.919,117.756L463.852,62.282C459.069,62.476 453.628,61.627 447.436,65.439Z" style="fill:none;stroke:#FFFFFF;stroke-width:2.5px;"></path>
        <path d="M389.022,76.007L372.954,128.698L352.662,128.698L372.89,62.871L375.901,62.885C383.148,62.885 389.022,68.76 389.022,76.007Z" style="fill:white;fill-rule:nonzero;"></path>
        <path d="M389.022,76.007L372.954,128.698L352.662,128.698L372.89,62.871L375.901,62.885C383.148,62.885 389.022,68.76 389.022,76.007Z" style="fill:none;stroke:#FFFFFF;stroke-width:2.5px;"></path>
        <path d="M292.179,76.007L276.113,128.698L255.82,128.698L276.047,62.871L279.058,62.885C286.305,62.885 292.179,68.76 292.179,76.007Z" style="fill:white;fill-rule:nonzero;"></path>
        <path d="M292.179,76.007L276.113,128.698L255.82,128.698L276.047,62.871L279.058,62.885C286.305,62.885 292.179,68.76 292.179,76.007Z" style="fill:none;stroke:#FFFFFF;stroke-width:2.5px;"></path>
        <path d="M239.433,83.637L256.941,26.363L277.235,26.363L273.564,37.79L266.842,59.826L249.175,117.756L228.883,117.756L234.739,98.556C193.995,132.09 159.303,120.309 156.185,99.409C153.764,83.193 170.505,63.096 188.469,60.611C206.431,58.126 213.304,63.362 220.701,66.832L218.541,71.217C215.923,70.89 210.523,64.016 194.351,65.717L179.421,111.538C196.603,120.143 234.858,98.177 239.433,83.637Z" style="fill:white;fill-rule:nonzero;"></path>
        <path d="M239.433,83.637L256.941,26.363L277.235,26.363L273.564,37.79L266.842,59.826L249.175,117.756L228.883,117.756L234.739,98.556C193.995,132.09 159.303,120.309 156.185,99.409C153.764,83.193 170.505,63.096 188.469,60.611C206.431,58.126 213.304,63.362 220.701,66.832L218.541,71.217C215.923,70.89 210.523,64.016 194.351,65.717L179.421,111.538C196.603,120.143 234.858,98.177 239.433,83.637Z" style="fill:none;stroke:#FFFFFF;stroke-width:2.5px;"></path>
        <path d="M86.206,31.903C46.934,31.903 58.714,67.576 62.642,72.811C62.642,72.811 73.115,91.467 74.751,94.74C76.388,98.012 82.933,110.121 68.534,112.74L34.169,112.74L34.169,121.576L101.59,121.576C101.59,121.576 82.933,121.576 105.515,121.576C105.515,121.576 132.025,118.303 119.916,88.194L107.48,64.958L106.498,62.993C103.553,58.412 103.225,42.048 120.571,42.048C137.916,42.048 125.48,42.048 125.48,42.048L181.809,42.048L190.935,31.903L86.206,31.903Z" style="fill:#FFFFFF;fill-rule:nonzero;"></path>
        <path d="M86.206,31.903C46.934,31.903 58.714,67.576 62.642,72.811C62.642,72.811 73.115,91.467 74.751,94.74C76.388,98.012 82.933,110.121 68.534,112.74L34.169,112.74L34.169,121.576L101.59,121.576C101.59,121.576 82.933,121.576 105.515,121.576C105.515,121.576 132.025,118.303 119.916,88.194L107.48,64.958L106.498,62.993C103.553,58.412 103.225,42.048 120.571,42.048C137.916,42.048 125.48,42.048 125.48,42.048L181.809,42.048L190.935,31.903L86.206,31.903Z" style="fill:none;stroke:#FFFFFF;stroke-width:6px;"></path>
        <path d="M78.466,26.38C39.193,26.38 50.974,62.053 54.902,67.289C54.902,67.289 65.374,85.944 67.011,89.218C68.647,92.49 75.192,104.599 60.793,107.217L26.429,107.217L26.429,116.054L97.774,116.054C97.774,116.054 124.285,112.781 112.176,82.672L99.739,59.435L98.757,57.471C95.811,52.89 95.485,36.525 112.831,36.525L172.068,36.525L183.195,26.38L78.466,26.38Z" style="fill:white;fill-rule:nonzero;"></path>
        <path d="M78.466,26.38C39.193,26.38 50.974,62.053 54.902,67.289C54.902,67.289 65.374,85.944 67.011,89.218C68.647,92.49 75.192,104.599 60.793,107.217L26.429,107.217L26.429,116.054L97.774,116.054C97.774,116.054 124.285,112.781 112.176,82.672L99.739,59.435L98.757,57.471C95.811,52.89 95.485,36.525 112.831,36.525L172.068,36.525L183.195,26.38L78.466,26.38Z" style="fill:none;stroke:#FFFFFF;stroke-width:2.5px;"></path>
    </g>
</svg>
